<?xml version="1.0" standalone="no"?>
<svg xmlns:xlink="http://www.w3.org/1999/xlink" id="wave" style="transform:rotate(0deg); transition: 0.3s" viewBox="0 0 1440 390" version="1.1" xmlns="http://www.w3.org/2000/svg"><defs><linearGradient id="sw-gradient-0" x1="0" x2="0" y1="1" y2="0"><stop stop-color="rgba(0, 94, 184, 1)" offset="0%"/><stop stop-color="rgba(97, 187, 251, 1)" offset="100%"/></linearGradient></defs><path style="transform:translate(0, 0px); opacity:1" fill="url(#sw-gradient-0)" d="M0,351L48,312C96,273,192,195,288,162.5C384,130,480,143,576,123.5C672,104,768,52,864,71.5C960,91,1056,182,1152,188.5C1248,195,1344,117,1440,84.5C1536,52,1632,65,1728,58.5C1824,52,1920,26,2016,65C2112,104,2208,208,2304,247C2400,286,2496,260,2592,247C2688,234,2784,234,2880,208C2976,182,3072,130,3168,143C3264,156,3360,234,3456,234C3552,234,3648,156,3744,143C3840,130,3936,182,4032,175.5C4128,169,4224,104,4320,91C4416,78,4512,117,4608,123.5C4704,130,4800,104,4896,97.5C4992,91,5088,104,5184,97.5C5280,91,5376,65,5472,78C5568,91,5664,143,5760,143C5856,143,5952,91,6048,117C6144,143,6240,247,6336,266.5C6432,286,6528,221,6624,182C6720,143,6816,130,6864,123.5L6912,117L6912,390L6864,390C6816,390,6720,390,6624,390C6528,390,6432,390,6336,390C6240,390,6144,390,6048,390C5952,390,5856,390,5760,390C5664,390,5568,390,5472,390C5376,390,5280,390,5184,390C5088,390,4992,390,4896,390C4800,390,4704,390,4608,390C4512,390,4416,390,4320,390C4224,390,4128,390,4032,390C3936,390,3840,390,3744,390C3648,390,3552,390,3456,390C3360,390,3264,390,3168,390C3072,390,2976,390,2880,390C2784,390,2688,390,2592,390C2496,390,2400,390,2304,390C2208,390,2112,390,2016,390C1920,390,1824,390,1728,390C1632,390,1536,390,1440,390C1344,390,1248,390,1152,390C1056,390,960,390,864,390C768,390,672,390,576,390C480,390,384,390,288,390C192,390,96,390,48,390L0,390Z"/><defs><linearGradient id="sw-gradient-1" x1="0" x2="0" y1="1" y2="0"><stop stop-color="rgba(0, 94, 184, 1)" offset="0%"/><stop stop-color="rgba(97, 187, 251, 1)" offset="100%"/></linearGradient></defs><path style="transform:translate(0, 50px); opacity:0.9" fill="url(#sw-gradient-1)" d="M0,195L48,195C96,195,192,195,288,175.5C384,156,480,117,576,130C672,143,768,208,864,240.5C960,273,1056,273,1152,234C1248,195,1344,117,1440,110.5C1536,104,1632,169,1728,175.5C1824,182,1920,130,2016,136.5C2112,143,2208,208,2304,227.5C2400,247,2496,221,2592,221C2688,221,2784,247,2880,234C2976,221,3072,169,3168,182C3264,195,3360,273,3456,266.5C3552,260,3648,169,3744,162.5C3840,156,3936,234,4032,260C4128,286,4224,260,4320,234C4416,208,4512,182,4608,143C4704,104,4800,52,4896,84.5C4992,117,5088,234,5184,292.5C5280,351,5376,351,5472,325C5568,299,5664,247,5760,221C5856,195,5952,195,6048,188.5C6144,182,6240,169,6336,175.5C6432,182,6528,208,6624,240.5C6720,273,6816,312,6864,331.5L6912,351L6912,390L6864,390C6816,390,6720,390,6624,390C6528,390,6432,390,6336,390C6240,390,6144,390,6048,390C5952,390,5856,390,5760,390C5664,390,5568,390,5472,390C5376,390,5280,390,5184,390C5088,390,4992,390,4896,390C4800,390,4704,390,4608,390C4512,390,4416,390,4320,390C4224,390,4128,390,4032,390C3936,390,3840,390,3744,390C3648,390,3552,390,3456,390C3360,390,3264,390,3168,390C3072,390,2976,390,2880,390C2784,390,2688,390,2592,390C2496,390,2400,390,2304,390C2208,390,2112,390,2016,390C1920,390,1824,390,1728,390C1632,390,1536,390,1440,390C1344,390,1248,390,1152,390C1056,390,960,390,864,390C768,390,672,390,576,390C480,390,384,390,288,390C192,390,96,390,48,390L0,390Z"/><defs><linearGradient id="sw-gradient-2" x1="0" x2="0" y1="1" y2="0"><stop stop-color="rgba(0, 94, 184, 1)" offset="0%"/><stop stop-color="rgba(97, 187, 251, 1)" offset="100%"/></linearGradient></defs><path style="transform:translate(0, 100px); opacity:0.8" fill="url(#sw-gradient-2)" d="M0,234L48,234C96,234,192,234,288,227.5C384,221,480,208,576,221C672,234,768,273,864,279.5C960,286,1056,260,1152,227.5C1248,195,1344,156,1440,136.5C1536,117,1632,117,1728,130C1824,143,1920,169,2016,156C2112,143,2208,91,2304,58.5C2400,26,2496,13,2592,58.5C2688,104,2784,208,2880,266.5C2976,325,3072,338,3168,331.5C3264,325,3360,299,3456,286C3552,273,3648,273,3744,273C3840,273,3936,273,4032,234C4128,195,4224,117,4320,130C4416,143,4512,247,4608,273C4704,299,4800,247,4896,227.5C4992,208,5088,221,5184,247C5280,273,5376,312,5472,279.5C5568,247,5664,143,5760,136.5C5856,130,5952,221,6048,260C6144,299,6240,286,6336,273C6432,260,6528,247,6624,240.5C6720,234,6816,234,6864,234L6912,234L6912,390L6864,390C6816,390,6720,390,6624,390C6528,390,6432,390,6336,390C6240,390,6144,390,6048,390C5952,390,5856,390,5760,390C5664,390,5568,390,5472,390C5376,390,5280,390,5184,390C5088,390,4992,390,4896,390C4800,390,4704,390,4608,390C4512,390,4416,390,4320,390C4224,390,4128,390,4032,390C3936,390,3840,390,3744,390C3648,390,3552,390,3456,390C3360,390,3264,390,3168,390C3072,390,2976,390,2880,390C2784,390,2688,390,2592,390C2496,390,2400,390,2304,390C2208,390,2112,390,2016,390C1920,390,1824,390,1728,390C1632,390,1536,390,1440,390C1344,390,1248,390,1152,390C1056,390,960,390,864,390C768,390,672,390,576,390C480,390,384,390,288,390C192,390,96,390,48,390L0,390Z"/><defs><linearGradient id="sw-gradient-3" x1="0" x2="0" y1="1" y2="0"><stop stop-color="rgba(0, 94, 184, 1)" offset="0%"/><stop stop-color="rgba(97, 187, 251, 1)" offset="100%"/></linearGradient></defs><path style="transform:translate(0, 150px); opacity:0.7" fill="url(#sw-gradient-3)" d="M0,273L48,240.5C96,208,192,143,288,130C384,117,480,156,576,149.5C672,143,768,91,864,71.5C960,52,1056,65,1152,104C1248,143,1344,208,1440,253.5C1536,299,1632,325,1728,279.5C1824,234,1920,117,2016,110.5C2112,104,2208,208,2304,253.5C2400,299,2496,286,2592,279.5C2688,273,2784,273,2880,260C2976,247,3072,221,3168,208C3264,195,3360,195,3456,208C3552,221,3648,247,3744,234C3840,221,3936,169,4032,156C4128,143,4224,169,4320,149.5C4416,130,4512,65,4608,91C4704,117,4800,234,4896,253.5C4992,273,5088,195,5184,182C5280,169,5376,221,5472,201.5C5568,182,5664,91,5760,45.5C5856,0,5952,0,6048,32.5C6144,65,6240,130,6336,156C6432,182,6528,169,6624,143C6720,117,6816,78,6864,58.5L6912,39L6912,390L6864,390C6816,390,6720,390,6624,390C6528,390,6432,390,6336,390C6240,390,6144,390,6048,390C5952,390,5856,390,5760,390C5664,390,5568,390,5472,390C5376,390,5280,390,5184,390C5088,390,4992,390,4896,390C4800,390,4704,390,4608,390C4512,390,4416,390,4320,390C4224,390,4128,390,4032,390C3936,390,3840,390,3744,390C3648,390,3552,390,3456,390C3360,390,3264,390,3168,390C3072,390,2976,390,2880,390C2784,390,2688,390,2592,390C2496,390,2400,390,2304,390C2208,390,2112,390,2016,390C1920,390,1824,390,1728,390C1632,390,1536,390,1440,390C1344,390,1248,390,1152,390C1056,390,960,390,864,390C768,390,672,390,576,390C480,390,384,390,288,390C192,390,96,390,48,390L0,390Z"/></svg>